<svg id="Layer_1" data-name="Layer 1" xmlns="http://www.w3.org/2000/svg" viewBox="0 0 43.23 43.21"><defs><style>.cls-1{fill:#505a5f;}.cls-2{fill:none;stroke:#505a5f;stroke-linecap:round;stroke-miterlimit:10;stroke-width:2px;}</style></defs><path class="cls-1" d="M41.41,19a1.23,1.23,0,0,1,1.21,1.2v21.2a1.23,1.23,0,0,1-1.21,1.21H8.59a1.23,1.23,0,0,1-1.21-1.21V20.16A1.23,1.23,0,0,1,8.59,19H41.41m0-4H8.59a5.22,5.22,0,0,0-5.21,5.2v21.2a5.23,5.23,0,0,0,5.21,5.21H41.41a5.23,5.23,0,0,0,5.21-5.21V20.16A5.22,5.22,0,0,0,41.41,15Z" transform="translate(-3.38 -3.36)"/><circle class="cls-1" cx="14.51" cy="23.92" r="2.9"/><circle class="cls-1" cx="28.73" cy="23.92" r="2.9"/><polygon class="cls-1" points="21.62 0.69 19.05 12.44 24.19 12.44 21.62 0.69"/><circle class="cls-1" cx="21.62" cy="2.57" r="2.57"/><path class="cls-2" d="M16.89,35l4.28,1.38a11.74,11.74,0,0,0,7.66,0L33.11,35" transform="translate(-3.38 -3.36)"/></svg>