<?xml version="1.0" encoding="UTF-8" standalone="no"?>
<!DOCTYPE svg PUBLIC "-//W3C//DTD SVG 1.1//EN" "http://www.w3.org/Graphics/SVG/1.1/DTD/svg11.dtd">
<svg xmlns:xl="http://www.w3.org/1999/xlink" xmlns:dc="http://purl.org/dc/elements/1.1/" version="1.1" xmlns="http://www.w3.org/2000/svg" viewBox="76 472.5 40 40.28" width="40" height="40.28">
  <defs/>
  <metadata> Produced by OmniGraffle 7.18\n2020-12-14 12:20:31 +0000</metadata>
  <g id="Canvas_1" fill-opacity="1" stroke-dasharray="none" stroke="none" fill="none" stroke-opacity="1">
    <title>Canvas 1</title>
    <g id="Canvas_1_Layer_1">
      <title>Layer 1</title>
      <g id="Graphic_3">
        <title>Alarm</title>
        <path d="M 116 480.22 L 106.8 472.5 L 104.22 475.56 L 113.42 483.28 L 116 480.22 Z M 87.76 475.56 L 85.2 472.5 L 76 480.2 L 78.58 483.26 L 87.76 475.56 Z M 97 484.78 L 94 484.78 L 94 496.78 L 103.5 502.48 L 105 500.02 L 97 495.28 L 97 484.78 Z M 96 476.78 C 86.06 476.78 78 484.84 78 494.78 C 78 504.72 86.04 512.78 96 512.78 C 105.94 512.78 114 504.72 114 494.78 C 114 484.84 105.94 476.78 96 476.78 Z M 96 508.78 C 88.26 508.78 82 502.52 82 494.78 C 82 487.04 88.26 480.78 96 480.78 C 103.74 480.78 110 487.04 110 494.78 C 110 502.52 103.74 508.78 96 508.78 Z" fill="black"/>
      </g>
    </g>
  </g>
</svg>
