<?xml version="1.0" encoding="UTF-8" standalone="no"?>
<!DOCTYPE svg PUBLIC "-//W3C//DTD SVG 1.1//EN" "http://www.w3.org/Graphics/SVG/1.1/DTD/svg11.dtd">
<svg xmlns:xl="http://www.w3.org/1999/xlink" version="1.1" xmlns="http://www.w3.org/2000/svg" xmlns:dc="http://purl.org/dc/elements/1.1/" viewBox="1266 806 205.05263 179.27273" width="205.05263" height="179.27273">
  <defs/>
  <metadata> Produced by OmniGraffle 7.18.1\n2020-12-17 10:46:23 +0000</metadata>
  <g id="Canvas_1" stroke-opacity="1" fill="none" stroke="none" stroke-dasharray="none" fill-opacity="1">
    <title>Canvas 1</title>
    <g id="Canvas_1_Layer_1">
      <title>Layer 1</title>
      <g id="Graphic_60">
        <path d="M 1289.6424 950.2541 L 1352.9486 840.9069 C 1357.9295 832.3036 1368.9417 829.367 1377.545 834.3479 C 1380.2668 835.9237 1382.5282 838.1851 1384.104 840.9069 L 1447.4103 950.2541 C 1452.3911 958.8574 1449.4545 969.8695 1440.8512 974.8504 C 1438.1105 976.4372 1434.9995 977.2727 1431.8326 977.2727 L 1305.22 977.2727 C 1295.279 977.2727 1287.22 969.2139 1287.22 959.2727 C 1287.22 956.1058 1288.0556 952.9949 1289.6424 950.2541 Z" stroke="#505a5f" stroke-linecap="round" stroke-linejoin="round" stroke-width="16"/>
      </g>
      <g id="Graphic_63">
        <title>!</title>
        <path d="M 1360.7822 876.6061 L 1376.1689 876.6061 L 1374.8486 924.7975 L 1362.1533 924.7975 Z M 1358.8017 942.0253 C 1358.8017 940.705 1359.0556 939.4609 1359.5634 938.2929 C 1360.0712 937.1249 1360.7737 936.1009 1361.6708 935.2206 C 1362.568 934.3404 1363.609 933.6464 1364.7939 933.1386 C 1365.9788 932.6308 1367.2483 932.3769 1368.6025 932.3769 C 1369.9228 932.3769 1371.167 932.6308 1372.3349 933.1386 C 1373.5029 933.6464 1374.527 934.3404 1375.4072 935.2206 C 1376.2874 936.1009 1376.9814 937.1249 1377.4892 938.2929 C 1377.997 939.4609 1378.251 940.705 1378.251 942.0253 C 1378.251 943.3795 1377.997 944.649 1377.4892 945.8339 C 1376.9814 947.0188 1376.2874 948.0514 1375.4072 948.9316 C 1374.527 949.8118 1373.5029 950.5058 1372.3349 951.0136 C 1371.167 951.5214 1369.9228 951.7753 1368.6025 951.7753 C 1367.2483 951.7753 1365.9788 951.5214 1364.7939 951.0136 C 1363.609 950.5058 1362.568 949.8118 1361.6708 948.9316 C 1360.7737 948.0514 1360.0712 947.0188 1359.5634 945.8339 C 1359.0556 944.649 1358.8017 943.3795 1358.8017 942.0253 Z" fill="#505a5f"/>
      </g>
    </g>
  </g>
</svg>
